<?xml version="1.0" ?><svg enable-background="new 0 0 64 64" version="1.1" viewBox="0 0 64 64" xml:space="preserve" xmlns="http://www.w3.org/2000/svg" xmlns:xlink="http://www.w3.org/1999/xlink"><g id="Layer_1"/><g id="icon"><g><g><path d="M32,42.079c-5.263,0-9.545-4.282-9.545-9.545V17.58c0-5.263,4.282-9.545,9.545-9.545c5.264,0,9.546,4.282,9.546,9.545     v14.954C41.546,37.797,37.263,42.079,32,42.079z M32,10.035c-4.16,0-7.545,3.385-7.545,7.545v14.954     c0,4.16,3.385,7.545,7.545,7.545c4.161,0,7.546-3.385,7.546-7.545V17.58C39.546,13.42,36.161,10.035,32,10.035z"/></g><g><path d="M32.035,46.636c-0.182,0-0.362-0.004-0.545-0.011c-7.698-0.298-12.878-6.788-13.095-7.064     c-0.34-0.434-0.265-1.062,0.169-1.402c0.436-0.343,1.063-0.266,1.404,0.167c0.048,0.061,4.847,6.049,11.614,6.302     c4.285,0.17,8.479-1.979,12.499-6.359c0.373-0.408,1.006-0.436,1.412-0.061c0.407,0.373,0.435,1.006,0.061,1.412     C41.28,44.277,36.734,46.636,32.035,46.636z"/></g><g><path d="M32,55.966c-0.553,0-1-0.447-1-1V46.42c0-0.553,0.447-1,1-1c0.553,0,1,0.447,1,1v8.546     C33,55.518,32.552,55.966,32,55.966z"/></g></g></g></svg>